<svg xmlns="http://www.w3.org/2000/svg" viewBox="0 0 435 435">
	<defs>
		<style>
			.ink{fill:#ffffff;} .paper{fill:#006938;}
			@media (prefers-color-scheme: dark) { .ink{ fill:#76bd22; } }
		</style>
	</defs>
	<title>University of Stirling</title>
	<rect class="paper" width="435" height="435" />
	<path class="ink" d="M303.79,120.19h-.05c-3.72-.4-7.24-.79-10.59.75v35.56a20,20,0,0,1,5.59-.74,52,52,0,0,1,5.64.41c3.73.4,7.26.77,10.6-.75V119.85C311.11,121,307.39,120.57,303.79,120.19ZM314.17,148a2.19,2.19,0,0,1-1,1.41c-3.24,2.06-6.41,1.73-9.2,1.44-2.31-.25-4.45-.48-6.38.75a2.35,2.35,0,0,1-1.21.35,2.27,2.27,0,0,1-1.21-4.18c3.24-2.06,6.41-1.73,9.2-1.43,2.31.25,4.44.48,6.39-.75a2.26,2.26,0,0,1,3.41,2.41Zm-1-9h0c-3.28,2.07-6.59,1.71-9.25,1.42-2.47-.25-4.42-.46-6.35.76a2.14,2.14,0,0,1-1.2.35,2.26,2.26,0,0,1-1.22-4.17c3.28-2.08,6.59-1.72,9.25-1.43,2.31.24,4.43.46,6.34-.75a2.19,2.19,0,0,1,1.69-.31,2.27,2.27,0,0,1,.74,4.13Zm.69-13.6h0a2.27,2.27,0,0,1-.7,3.13c-3.27,2.07-6.58,1.72-9.24,1.43-2.47-.26-4.42-.46-6.35.75a2.15,2.15,0,0,1-1.2.36,2.27,2.27,0,0,1-1.22-4.18c3.28-2.07,6.59-1.71,9.25-1.43,2.27.24,4.42.47,6.35-.75A2.25,2.25,0,0,1,313.87,125.39ZM204,327.49a49,49,0,0,1,6.35-.35,19.45,19.45,0,0,1,4.64.71V292.3c-3.34-1.53-6.87-1.15-10.6-.76l-.15,0a48.92,48.92,0,0,1-6,.38,19.89,19.89,0,0,1-5.08-.72v35.55c3.33,1.52,6.85,1.15,10.58.75Zm-9.74-30.73a2.25,2.25,0,0,1,3.12-.7c1.56,1,3.17,1.06,5.26.86l1.09-.11a20.47,20.47,0,0,1,5.16-.08,10.33,10.33,0,0,1,4.09,1.52,2.21,2.21,0,0,1,1,1.31,2.25,2.25,0,0,1-2.18,2.86,2.29,2.29,0,0,1-1.2-.34,7.66,7.66,0,0,0-5-.89l-1.22.12c-2.92.3-6.08.64-9.33-1.43a2.28,2.28,0,0,1-1-1.42A2.25,2.25,0,0,1,194.24,296.76Zm0,10.47a2.27,2.27,0,0,1,3.12-.71c1.95,1.24,4.08,1,6.34.76,2.66-.29,6-.65,9.26,1.43a2.28,2.28,0,0,1,.69,3.13,2.25,2.25,0,0,1-1.91,1,2.29,2.29,0,0,1-1.2-.34c-1.95-1.23-4.09-1-6.35-.76-2.83.3-6,.63-9.25-1.43a2.3,2.3,0,0,1-1-1.43A2.23,2.23,0,0,1,194.24,307.23Zm.7,13.58a2.18,2.18,0,0,1-.83-.94,2.24,2.24,0,0,1-.18-.57,2.22,2.22,0,0,1,.31-1.6,2.25,2.25,0,0,1,3.12-.71c1.78,1.12,3.64,1,5.88.8l.46,0c2.37-.26,5.06-.54,7.84.68a11.08,11.08,0,0,1,1.41.74,2.31,2.31,0,0,1,1,1.44,2.25,2.25,0,0,1-.32,1.7,2.18,2.18,0,0,1-1.9,1,2.29,2.29,0,0,1-1.2-.34,7.07,7.07,0,0,0-4.39-.94c-.68,0-1.37.11-2,.18a25.51,25.51,0,0,1-3.95.19A10.53,10.53,0,0,1,194.94,320.81Zm-18.65-.49-.31-.39c2.8-2.27,6-4.83,11.2-5.74V295.05c-3.1.77-5.13,2.42-7.46,4.31-3.51,2.85-7.5,6.07-15.25,6.07s-11.73-3.22-15.24-6.07c-3.14-2.56-5.85-4.76-11.49-4.76a14.11,14.11,0,0,0-8.45,2.44,192,192,0,0,0,21.65,21.29c.72.53,1.43,1.11,2,1.6,3.15,2.55,5.87,4.76,11.49,4.76s8.33-2.2,11.47-4.73Zm72.43-.06v9.91l-1.39.87c-5.51,3.51-10.74,2.94-15.8,2.4-4.26-.45-8.24-.87-12,1.5L218,336l-1.6-1c-3.75-2.38-7.74-2-12-1.51-5.09.54-10.33,1.11-15.84-2.4l-1.38-.87v-9.91c-3.07.76-5.11,2.4-7.44,4.28-3.18,2.58-6.73,5.46-13.07,6A370,370,0,0,0,218,361a370.37,370.37,0,0,0,51.28-30.4c-6.34-.55-9.88-3.43-13-6C253.85,322.67,251.82,321,248.72,320.26ZM104.34,97.4V206.19a231.45,231.45,0,0,1,85.3-27.36l4.28-35-4.51-9V109.12l3.52-.36c4.68-.49,9.32-.84,13.81-1.05l4.11-.18v0h.4c4.52-.12,8.79-.13,13.36,0l.55,0h1l3,.14c4.49.21,9.14.56,13.82,1.05l3.53.36-.06,26L242,143.82l4.31,35a231.62,231.62,0,0,1,85.31,27.36V97.4Zm73.06,61.41-1.38.87c-5.5,3.5-10.74,2.94-15.81,2.4-4.23-.46-8.22-.89-12,1.5l-1.59,1-1.6-1c-3.76-2.4-7.75-2-12-1.51-5.06.54-10.3,1.1-15.81-2.4l-1.38-.87v-49l4.57,2.91c3.76,2.38,7.76,1.95,12,1.49,4.57-.48,9.28-1,14.22,1.5,4.94-2.48,9.64-2,14.19-1.5,4.24.45,8.24.89,12-1.49l4.57-2.91Zm143.53,0-1.38.87c-5.5,3.5-10.74,2.94-15.8,2.4-4.24-.45-8.23-.89-12,1.5l-1.59,1-1.6-1c-3.76-2.4-7.75-2-12-1.51-5.07.54-10.3,1.1-15.81-2.4l-1.38-.87v-49l4.57,2.91c3.76,2.38,7.75,1.95,12,1.49,4.56-.48,9.28-1,14.22,1.5,4.93-2.48,9.64-2,14.19-1.5,4.24.46,8.24.89,12-1.49l4.57-2.91ZM286.68,299.36c-3.52,2.85-7.5,6.07-15.25,6.07s-11.73-3.22-15.24-6.07c-2.34-1.9-4.38-3.55-7.47-4.31v19.14c5.23.9,8.41,3.47,11.22,5.74,3.15,2.55,5.87,4.76,11.49,4.76s8.33-2.2,11.47-4.73c.74-.61,1.36-1.1,2-1.59A189.63,189.63,0,0,0,306.62,297a14.19,14.19,0,0,0-8.44-2.43C292.54,294.6,289.82,296.8,286.68,299.36ZM276.59,120.18h0c-3.6.38-7.31.77-11.18-.34v35.56c3.34,1.52,6.86,1.14,10.59.75a51.23,51.23,0,0,1,5.64-.41,20,20,0,0,1,5.6.74V120.93C283.84,119.39,280.32,119.78,276.59,120.18Zm9.28,30.76a2.25,2.25,0,0,1-3.11.7c-1.95-1.23-4.09-1-6.35-.76-2.84.3-6,.63-9.25-1.43a2.26,2.26,0,0,1-1-1.41,2.26,2.26,0,0,1,3.42-2.41c1.94,1.23,4.08,1,6.34.75,2.84-.3,6-.63,9.25,1.44a2.23,2.23,0,0,1,1,1.41A2.28,2.28,0,0,1,285.87,150.94Zm-19.42-15.07a2.28,2.28,0,0,1,3.13-.71c1.94,1.23,4.08,1,6.34.76,2.84-.3,6-.63,9.26,1.43a2.26,2.26,0,0,1,.68,3.13,2.23,2.23,0,0,1-1.9,1,2.26,2.26,0,0,1-1.2-.34c-1.95-1.24-4.09-1-6.35-.76-2.84.3-6,.63-9.25-1.44a2.2,2.2,0,0,1-1-1.41A2.25,2.25,0,0,1,266.45,135.87Zm19.72-7.56a2.26,2.26,0,0,1-2.21,2.75,2.24,2.24,0,0,1-1.2-.35c-1.95-1.23-4.09-1-6.35-.76-2.84.3-6,.63-9.25-1.43a2.27,2.27,0,0,1,2.42-3.83c1.94,1.23,4.08,1,6.33.76,2.85-.3,6-.63,9.27,1.43A2.25,2.25,0,0,1,286.17,128.31Zm-54,199.21h0c3.73.4,7.26.77,10.58-.75V291.22a19.67,19.67,0,0,1-5.06.72,46.86,46.86,0,0,1-6-.38l-.18,0c-3.73-.39-7.26-.77-10.6.76v35.55a19.88,19.88,0,0,1,4.53-.71l1,0A52,52,0,0,1,232.16,327.52ZM222,299.57h0a2.32,2.32,0,0,1,1-1.33,10.29,10.29,0,0,1,4.1-1.5,19.52,19.52,0,0,1,5.09.07l1.17.12a8,8,0,0,0,5.24-.87,2.19,2.19,0,0,1,1.68-.3,2.26,2.26,0,0,1,.74,4.12c-3.28,2.08-6.59,1.72-9.25,1.43l-1.28-.12a7.63,7.63,0,0,0-5.06.88,2.2,2.2,0,0,1-1.21.35,2.29,2.29,0,0,1-1.91-1A2.18,2.18,0,0,1,222,299.57Zm1,9.14h0c3.28-2.07,6.59-1.72,9.25-1.43,2.3.24,4.42.47,6.34-.75a2.26,2.26,0,1,1,2.41,3.82c-3.27,2.07-6.58,1.72-9.24,1.43-2.47-.26-4.42-.46-6.34.75a2.2,2.2,0,0,1-1.21.36,2.27,2.27,0,0,1-1.22-4.18ZM225.37,323h0a2.29,2.29,0,0,1-1.2.34,2.28,2.28,0,0,1-2.22-2.73,2.29,2.29,0,0,1,1-1.44,12.38,12.38,0,0,1,1.4-.74c2.8-1.23,5.48-.95,7.84-.69l.45,0c2.35.24,4.13.33,5.9-.8a2.26,2.26,0,0,1,3.44,2.3,2.22,2.22,0,0,1-.19.6,2.2,2.2,0,0,1-.83.93,10.66,10.66,0,0,1-5.27,1.62,23.93,23.93,0,0,1-3.94-.19c-.62-.06-1.31-.14-2-.18A7.11,7.11,0,0,0,225.37,323ZM133.06,120.18h0c-3.61.38-7.33.77-11.2-.34V155.4c3.35,1.53,6.87,1.16,10.6.76a51.88,51.88,0,0,1,5.64-.41,20,20,0,0,1,5.6.74V120.93C140.31,119.39,136.79,119.78,133.06,120.18Zm9.28,30.76a2.25,2.25,0,0,1-3.11.7c-1.94-1.23-4.09-1-6.35-.76-2.84.3-6,.63-9.25-1.43a2.22,2.22,0,0,1-1-1.41,2.28,2.28,0,0,1,.3-1.71,2.25,2.25,0,0,1,3.12-.7c1.94,1.23,4.08,1,6.34.75,2.84-.3,6-.63,9.26,1.43A2.28,2.28,0,0,1,142.34,150.94Zm-19.41-15.08a2.23,2.23,0,0,1,1.42-1,2.25,2.25,0,0,1,1.7.29c1.94,1.23,4.08,1,6.34.76,2.84-.3,6-.63,9.26,1.43a2.26,2.26,0,0,1,.69,3.12,2.21,2.21,0,0,1-1.91,1.05,2.29,2.29,0,0,1-1.2-.34c-1.95-1.24-4.09-1-6.35-.76-2.84.3-6,.63-9.25-1.44a2.25,2.25,0,0,1-.7-3.12Zm19.71-7.56a2.26,2.26,0,0,1-3.41,2.41c-1.95-1.23-4.09-1-6.35-.76-2.84.3-6,.63-9.25-1.43a2.29,2.29,0,0,1-1-1.43,2.27,2.27,0,0,1,3.42-2.4c1.94,1.23,4.08,1,6.35.76,2.83-.3,6-.63,9.25,1.43A2.26,2.26,0,0,1,142.64,128.3Zm54.63-12.05v13.84a285.35,285.35,0,0,1,41.35,0V116.25c-1.91-.18-3.83-.32-5.73-.44v5.68l-4.27-.35c-1.38-.12-2.79-.21-4.31-.29l-3.74-.18v-5.33c-1.8,0-3.49,0-5.28,0v5.33l-3.74.18c-1.77.09-3.09.18-4.29.29l-4.27.35v-5.68C201.08,115.93,199.16,116.08,197.27,116.25Zm40.78,60.34-4.2-34.21,2.34-4.57c-6.14-.4-12.27-.6-18.24-.6s-12.1.2-18.25.61l2.32,4.54-4.18,34.23A238.9,238.9,0,0,1,238.05,176.59Zm-24.62-33,2.13,0h4.74l2.15,0,2.42,19.62-1.24,0c-3.52-.08-7.57-.1-11.37,0l-1.23,0ZM104.34,214.13v3.45a14.05,14.05,0,0,1,20.21,12.61v16.7h7.73V225.42a14,14,0,1,1,28.08,0v21.47h7.73V220.64a14,14,0,0,1,28.09,0v26.25h7.73v-31a14,14,0,1,1,28.08,0v31h7.73V220.64a14,14,0,0,1,28.09,0v26.25h7.73V225.42a14,14,0,1,1,28.07,0v21.47h7.75v-16.7a14.05,14.05,0,0,1,20.21-12.61v-3.45a229.74,229.74,0,0,0-227.23,0Zm55.92-93.94h0c-3.72-.4-7.24-.79-10.59.75v35.56a19.86,19.86,0,0,1,5.59-.74,52.15,52.15,0,0,1,5.64.41c3.73.39,7.25.77,10.6-.76V119.85C167.58,121,163.86,120.57,160.26,120.19ZM170.64,148a2.22,2.22,0,0,1-1,1.41c-3.25,2.07-6.41,1.73-9.21,1.44-2.3-.25-4.44-.48-6.37.75a2.35,2.35,0,0,1-1.21.35,2.27,2.27,0,0,1-2.21-2.75,2.21,2.21,0,0,1,1-1.42c3.25-2.07,6.42-1.74,9.21-1.44,2.3.24,4.44.48,6.39-.75a2.26,2.26,0,0,1,3.41,2.41Zm-1-9h0c-3.26,2.07-6.44,1.73-9.25,1.43-2.37-.25-4.42-.47-6.35.75a2.14,2.14,0,0,1-1.2.35,2.26,2.26,0,0,1-1.22-4.17c3.28-2.08,6.59-1.72,9.25-1.43,2.31.24,4.43.46,6.34-.75a2.19,2.19,0,0,1,1.69-.31,2.26,2.26,0,0,1,.74,4.13Zm.7-13.6h0a2.26,2.26,0,0,1-.71,3.12c-3.27,2.07-6.58,1.72-9.24,1.43-2.37-.25-4.42-.46-6.35.75a2.15,2.15,0,0,1-1.2.36,2.27,2.27,0,0,1-1.22-4.18c3.28-2.07,6.6-1.71,9.25-1.43,2.37.25,4.42.47,6.34-.75A2.28,2.28,0,0,1,170.35,125.39ZM309.67,274.15c-3.14-2.55-5.85-4.75-11.49-4.75s-8.35,2.2-11.5,4.75c-3.53,2.85-7.52,6.08-15.25,6.08s-11.7-3.22-15.22-6.06c-3.15-2.56-5.87-4.77-11.51-4.77s-8.35,2.2-11.5,4.75c-3.53,2.85-7.52,6.08-15.25,6.08s-11.7-3.22-15.22-6.06c-3.15-2.56-5.87-4.77-11.51-4.77s-8.35,2.2-11.5,4.75c-3.53,2.85-7.52,6.08-15.25,6.08s-11.7-3.22-15.22-6.06c-3.15-2.56-5.87-4.77-11.51-4.77s-8.35,2.2-11.5,4.75c-2.53,2.05-5.38,4.35-9.77,5.44l.39.64a130.37,130.37,0,0,0,8.62,12.2,20.27,20.27,0,0,1,12.26-3.78c7.75,0,11.73,3.23,15.24,6.08,3.15,2.54,5.86,4.74,11.49,4.74s8.35-2.19,11.49-4.73c2.8-2.28,6-4.85,11.22-5.75v-7.78l4.57,2.91c3.75,2.37,7.73,1.95,11.95,1.51,4.59-.5,9.3-1,14.25,1.48,5-2.49,9.66-2,14.21-1.49,4.26.45,8.24.87,12-1.5l4.58-2.91V289c5.26.9,8.42,3.47,11.22,5.75,3.15,2.54,5.86,4.74,11.49,4.74s8.35-2.19,11.49-4.73c3.52-2.86,7.51-6.09,15.26-6.09a20.38,20.38,0,0,1,12.25,3.77A132.44,132.44,0,0,0,319,280.23l.39-.64c-4.37-1.09-7.21-3.38-9.73-5.41ZM325.39,224a6.18,6.18,0,0,0-6.17,6.17v24.57H295.75V225.42a6.18,6.18,0,0,0-12.35,0v29.34H259.93V220.64a6.17,6.17,0,0,0-12.34,0v34.12H224.12V215.87a6.17,6.17,0,1,0-12.34,0v38.89H188.3V220.64a6.17,6.17,0,1,0-12.33,0v34.12H152.49V225.42a6.17,6.17,0,1,0-12.34,0v29.34H116.68V230.19a6.17,6.17,0,0,0-12.34,0V245.8a46.9,46.9,0,0,0,1.11,7.72,81.37,81.37,0,0,0,7.91,20.6c4.09-.51,6.43-2.41,9.13-4.61,3.53-2.84,7.52-6.07,15.25-6.07s11.71,3.22,15.22,6.05c3.16,2.58,5.87,4.78,11.51,4.78s8.36-2.2,11.5-4.76c3.53-2.84,7.52-6.07,15.25-6.07s11.68,3.2,15.19,6c3.19,2.6,5.9,4.8,11.54,4.8s8.36-2.2,11.51-4.76c3.52-2.84,7.51-6.07,15.24-6.07s11.68,3.2,15.19,6c3.19,2.6,5.91,4.8,11.54,4.8s8.35-2.2,11.5-4.76c3.53-2.84,7.52-6.07,15.25-6.07s11.71,3.22,15.22,6.06c2.71,2.2,5.05,4.11,9.15,4.62a81.67,81.67,0,0,0,7.9-20.6,49.23,49.23,0,0,0,1.12-7.76V230.19A6.19,6.19,0,0,0,325.39,224Z" />
</svg>